<?xml version="1.0" encoding="UTF-8" standalone="no"?>
<!-- Created with Inkscape (http://www.inkscape.org/) -->

<svg
   version="1.1"
   id="svg1"
   width="255.99998"
   height="153.27045"
   viewBox="0 0 255.99998 153.27045"
   xmlns="http://www.w3.org/2000/svg"
   xmlns:svg="http://www.w3.org/2000/svg">
  <defs
     id="defs1" />
  <g
     id="layer1"
     transform="translate(-3050.5297,-815.73773)">
    <g
       id="g2"
       style="fill:#f8f8ff;fill-opacity:1;stroke:none"
       transform="matrix(0.09023175,0,0,0.09023175,3118.6762,755.51017)">
      <text
         xml:space="preserve"
         style="font-size:229.25px;line-height:1.2;font-family:Lato;-inkscape-font-specification:Lato;text-align:center;word-spacing:20px;text-anchor:middle;opacity:1;fill:#f8f8ff;fill-opacity:1;stroke:none;stroke-width:1.59451"
         x="652.61365"
         y="2089.0588"
         id="text1"><tspan
           id="tspan1"
           x="652.61365"
           y="2089.0588"
           style="word-spacing:20px;fill:#f8f8ff;fill-opacity:1;stroke:none;stroke-width:1.59451">KARKONOSKA AKADEMIA</tspan><tspan
           x="652.61371"
           y="2364.1589"
           id="tspan2"
           style="word-spacing:20px;fill:#f8f8ff;fill-opacity:1;stroke:none;stroke-width:1.59451">NAUK STOSOWANYCH</tspan></text>
      <path
         style="fill:#f8f8ff;fill-opacity:1;stroke:none;stroke-width:3.31533"
         d="m 629.06793,1811.8156 c -39.39602,-35.9545 -108.75633,-73.8872 -178.57948,-97.664 -41.85129,-14.2516 -157.85427,-45.5099 -203.89256,-54.941 -59.98785,-12.2889 -148.588953,-23.5941 -224.082924,-28.5924 -40.863055,-2.7052 -92.199235,-6.4082 -114.080396,-8.2282 -21.88115,-1.8205 -54.32992,-3.3336 -72.10837,-3.3624 l -32.32443,-0.053 v -8.7596 c 0,-4.8178 3.11608,-19.2218 6.92406,-32.009 l 6.92407,-23.2495 61.86896,2.162 c 315.09795,11.0109 553.18817,61.4804 724.37275,153.5506 l 45.85291,24.6614 42.00322,-22.9244 c 67.18706,-36.6695 119.07195,-57.379 208.4591,-83.2057 131.96286,-38.1279 225.23306,-54.6492 357.36576,-63.3022 29.1748,-1.9104 80.3897,-5.6689 113.8108,-8.3517 33.4209,-2.6831 71.6542,-4.8785 84.9626,-4.8785 h 24.1972 l 7.0379,28.0606 c 3.8706,15.4332 7.0373,30.1235 7.0373,32.645 0,3.691 -13.4118,4.9771 -68.793,6.5959 -105.8319,3.0938 -201.2582,13.6061 -368.8302,40.6306 -156.64548,25.2621 -298.86567,77.8234 -371.31647,137.2293 -8.20548,6.7282 -20.34224,16.2797 -26.97088,21.2255 l -12.05222,8.992 z m -1.20941,-113.9085 c -31.53544,-19.8909 -109.58452,-55.3629 -154.21906,-70.0895 -49.43024,-16.3088 -190.58458,-52.5875 -227.04357,-58.3532 -84.29848,-13.3309 -229.204771,-27.2254 -318.271356,-30.5179 -52.879464,-1.955 -97.834634,-4.0291 -99.900744,-4.6093 -2.48218,-0.6969 3.8345,-30.6641 18.61953,-88.335 l 22.37614,-87.2801 41.056343,0.5363 c 54.053092,0.7066 109.002974,5.8026 211.665377,19.6291 118.71191,15.9884 135.92044,19.2258 211.04079,39.7047 136.15909,37.1183 190.16318,59.6487 267.60457,111.6433 16.10848,10.8156 29.96821,18.9846 30.7994,18.1534 0.8308,-0.8309 -3.32066,-13.2619 -9.22562,-27.6247 -9.8276,-23.9041 -10.74626,-29.1998 -10.85734,-62.5823 -0.10609,-31.6485 1.06883,-39.6981 8.88278,-60.9022 21.48663,-58.305 44.59442,-90.2728 167.43725,-231.6369 15.04329,-17.3114 27.35146,-32.4747 27.35146,-33.6965 0,-2.1758 -92.79368,-25.2936 -116.41043,-29.0015 -13.77289,-2.1625 -20.40289,0.7918 -46.04058,20.5133 -27.42244,21.0946 -43.09926,37.5275 -43.09926,45.179 0,5.599 1.36919,6.4255 7.45945,4.5036 19.65463,-6.2033 25.25552,-5.7899 33.51999,2.4748 8.29991,8.3 14.96971,34.8246 10.55364,41.9698 -1.20678,1.953 -10.94954,3.5507 -21.65003,3.5507 -17.27523,0 -20.25931,-1.0218 -26.62644,-9.1162 -5.2031,-6.6144 -6.69993,-12.0167 -5.45531,-19.6864 1.12687,-6.9447 0.0666,-11.9404 -3.09588,-14.5639 -6.88459,-5.7136 -9.68773,-1.1746 -5.26675,8.5284 8.62579,18.9317 -8.57744,35.8705 -34.73734,34.2025 l -16.03488,-1.0221 -1.00129,-17.3836 c -0.86789,-15.0691 0.15915,-18.5436 7.71151,-26.0965 7.31926,-7.3193 10.79367,-8.4336 21.72235,-6.9679 9.34926,1.2539 13.00904,0.5345 13.00904,-2.5581 0,-5.6577 -7.52748,-8.3274 -23.47815,-8.3274 -19.85723,0 -26.82103,-8.8423 -25.58339,-32.4849 l 0.98931,-18.9027 15.36979,-0.9949 c 12.32405,-0.798 17.1976,0.5772 24.59441,6.9396 9.53691,8.2031 12.44939,23.8906 6.74504,36.3257 -5.65759,12.3326 12.22365,5.8088 32.49087,-11.8542 11.14286,-9.7107 29.58397,-23.9393 40.98047,-31.619 20.50954,-13.8209 23.83813,-18.0288 17.40542,-22.0044 -1.82344,-1.127 -3.31528,-3.8276 -3.31528,-6.0012 0,-2.2036 46.18775,-20.0852 104.39698,-40.4171 57.41814,-20.0558 104.41291,-37.28116 104.4328,-38.27876 0.0334,-0.9972 -12.08775,-7.6392 -26.90554,-14.7595 -29.34925,-14.10297 -58.61835,-37.74734 -54.65814,-44.15455 3.8428,-6.2182 6.97506,-4.9103 29.39136,12.27071 34.4519,26.40594 46.33929,31.25224 80.60618,32.86294 48.07922,2.26 93.64741,-12.42 117.95371,-37.99902 19.1583,-20.16122 26.0451,-37.02433 26.0451,-63.773 0,-21.24362 3.6069,-30.99267 9.338,-25.23992 5.0205,5.03931 2.1224,52.99449 -3.8783,64.17516 -3.2715,6.09548 -5.1791,11.85227 -4.2389,12.79244 3.2361,3.23613 36.0554,-27.23601 56.0652,-52.05557 29.372,-36.43212 36.5272,-53.93737 34.9816,-85.58417 -1.113,-22.79485 -2.568,-27.52848 -13.8087,-44.9293 -7.8226,-12.10857 -11.7558,-21.4936 -10.4214,-24.86497 3.1015,-7.8351 22.9691,15.77202 29.977,35.61922 10.8281,30.66644 9.9708,30.33226 17.3072,6.75333 3.7368,-12.0091 10.1635,-39.98218 14.2818,-62.16239 6.5225,-35.1272 8.3176,-40.32796 13.9195,-40.32796 5.8906,0 6.2341,1.60164 4.0867,19.06313 -1.289,10.48472 -5.9211,34.27717 -10.2935,52.87217 -32.4911,138.1858 -112.475,227.59787 -227.9512,254.82145 -13.97073,3.2937 -25.40134,6.97736 -25.40134,8.18606 0,4.6491 51.26192,13.1633 78.83344,13.0939 35.1253,-0.09 50.4528,-6.0999 71.9483,-28.21666 11.005,-11.3235 16.3525,-20.37907 20.1786,-34.17118 7.6165,-27.45319 7.4249,-27.05339 12.9757,-27.05339 4.1505,0 4.7051,2.65957 2.9383,14.09017 -2.9543,19.1129 -6.1562,27.01495 -17.8059,43.9473 -5.463,7.9403 -9.9328,15.2206 -9.9328,16.17876 0,3.2188 24.703,-6.96846 42.7481,-17.62846 38.1446,-22.53373 66.8355,-47.79456 77.2996,-68.05808 6.5379,-12.66029 7.6096,-26.37182 5.039,-64.46657 -0.4191,-6.20863 0.9335,-11.87085 3.0056,-12.58333 5.4955,-1.88907 11.1515,17.19594 11.1515,37.6273 0,9.75702 1.2035,17.73965 2.6738,17.73965 4.1073,0 32.1825,-44.52185 49.6428,-78.72375 10.8117,-21.17898 17.4604,-30.65651 21.5127,-30.66678 4.7038,0 5.4451,1.7896 3.7443,9.1019 -8.1325,34.96112 -50.1629,97.43116 -103.8257,154.31651 -47.8123,50.68345 -100.9679,74.26701 -182.5137,80.97551 l -31.39617,2.5827 53.77467,21.2804 c 29.576,11.7041 53.7742,22.5933 53.7742,24.198 0,1.6048 -6.3406,5.796 -14.0902,9.3136 -21.59,9.8004 -59.8198,8.9602 -84.2676,-1.8519 -10.43861,-4.6162 -20.92432,-7.6471 -23.30175,-6.7348 -2.38868,0.9167 -4.32289,6.7371 -4.32289,13.0084 0,17.2794 -11.54159,71.2716 -35.06154,164.0172 -24.22871,95.54 -26.47587,117.8732 -13.75998,136.7423 4.67796,6.942 13.53155,13.6704 23.33162,17.732 l 15.79323,6.5454 40.48811,-7.6755 c 123.296,-23.3741 148.1324,-27.331 199.6237,-31.8043 30.9984,-2.6931 84.7068,-7.8752 119.3519,-11.5158 34.6452,-3.6405 71.2264,-6.6363 81.2915,-6.6572 l 18.3002,-0.037 20.7367,83.712 c 11.4051,46.0417 20.6999,84.6403 20.6548,85.7748 -0.047,1.1345 -25.8171,3.0747 -57.2713,4.3112 -182.1178,7.1609 -332.6423,26.0346 -455.02852,57.0548 -113.3033,28.7182 -186.65388,55.9824 -270.02307,100.3673 -20.87269,11.1127 -39.52138,20.176 -41.44162,20.1416 -1.92024,-0.033 -10.9509,-4.7682 -20.06797,-10.5189 z M 586.4169,1207.8746 c 18.61523,-18.6152 -7.62492,-41.6898 -27.35147,-24.0516 -3.61997,3.2367 -5.8018,9.9808 -5.8018,17.9349 0,12.6619 0.0896,12.7474 13.26132,12.7474 8.84099,0 15.47162,-2.2102 19.89195,-6.6307 z m 67.38299,1.9777 c 5.07147,-13.2169 -10.77811,-36.6416 -22.40393,-33.1118 -9.69002,2.9419 -18.45648,11.3251 -18.45648,17.649 0,12.164 9.76337,20.1158 24.69859,20.1158 9.28121,0 15.00879,-1.6491 16.16182,-4.653 z m -75.89048,-62.741 c 7.35375,-5.377 7.86533,-20.8676 0.91873,-27.8142 -2.80615,-2.8061 -10.82522,-5.284 -17.81994,-5.5058 -12.60584,-0.3997 -12.7262,-0.2817 -13.71677,13.2793 -1.54766,21.1835 14.60029,31.7531 30.61798,20.0407 z"
         id="path1" />
    </g>
  </g>
</svg>
